<svg xmlns="http://www.w3.org/2000/svg" width="40" height="40" viewBox="0 0 40 40"><title>logo-flower</title><path d="M7.073,7.309a1.845,1.845,0,0,1,.694.148A14.61,14.61,0,0,1,17.7,21.309,14.649,14.649,0,0,1,4.124,12.222,1.718,1.718,0,0,1,4,11.605v-.222a1.906,1.906,0,0,1,.273-.766A17.263,17.263,0,0,1,6.106,7.852,1.26,1.26,0,0,1,6.8,7.358a1.047,1.047,0,0,1,.273-.049m20.146,28.37a3.2,3.2,0,0,0,1.09.321h.124a3.309,3.309,0,0,0,1.288-.37,17.147,17.147,0,0,0,2.156-1.284,1.926,1.926,0,0,0,.744-1.136,2.5,2.5,0,0,0-.124-1.333,14.388,14.388,0,0,0-13.7-9.408,14.319,14.319,0,0,0,8.426,13.21M6.081,28.1a2.328,2.328,0,0,0-.594,1.407,1.926,1.926,0,0,0,.371,1.334,17.782,17.782,0,0,0,3.42,3.382,1.993,1.993,0,0,0,1.19.42,1.79,1.79,0,0,0,1.189-.444A14.562,14.562,0,0,0,17.6,22.444,14.775,14.775,0,0,0,6.081,28.1M28.309,4.568a19.472,19.472,0,0,0-9.466,16.691A19.585,19.585,0,0,0,35.718,11.63a3.194,3.194,0,0,0,.471-2.1,2.752,2.752,0,0,0-.719-1.556A18.431,18.431,0,0,0,31.9,4.469,3.137,3.137,0,0,0,30.143,4h-.1a3.847,3.847,0,0,0-1.734.568" style="fill:#ffffff"></path></svg>