<svg width="55" height="55" viewBox="0 0 55 55" fill="none" xmlns="http://www.w3.org/2000/svg">
<path d="M1.59966 26.4005H6.01281C9.04926 26.4005 11.5605 29.0336 11.6038 32.0968L11.6039 32.1039C11.6096 32.9041 11.4569 33.6975 11.1548 34.4385C10.8527 35.1794 10.407 35.8533 9.84352 36.4214C9.84346 36.4214 9.84339 36.4215 9.84333 36.4216L9.13342 35.7173C8.28727 36.5707 7.21332 37.0432 6.10924 37.0432L1.59966 26.4005ZM1.59966 26.4005L1.59967 16.6321L1.59965 16.6281C1.59671 15.8859 1.74454 15.1508 2.03419 14.4675C2.32383 13.7841 2.74925 13.1667 3.28465 12.6527L3.28631 12.651C4.36292 11.6126 5.80263 11.0358 7.29843 11.0437V11.0438H7.30372H14.9262H15.9262V10.0438V8.29844C15.9262 7.38232 16.1087 6.47538 16.463 5.63055C16.8173 4.78571 17.3363 4.01991 17.9898 3.37782C18.6432 2.73574 19.418 2.23024 20.2689 1.89083C21.1199 1.55141 22.0299 1.38489 22.9459 1.40096L22.9459 1.40097C26.6664 1.46596 29.7209 4.59644 29.7209 8.39607V10.0438V11.0438H30.7209L38.3434 11.0438L38.3542 11.0437C39.092 11.0358 39.824 11.1753 40.5072 11.454C41.1905 11.7327 41.8111 12.145 42.3329 12.6668C42.8547 13.1885 43.267 13.8092 43.5457 14.4924C43.8244 15.1756 43.9639 15.9076 43.956 16.6455L43.9559 16.6455V16.6562V24.2787V25.2787H44.9559H46.6024C50.4838 25.2787 53.5986 28.3507 53.5986 32.07C53.5986 35.9431 50.4912 39.0734 46.7012 39.0734H44.9559H43.9559V40.0734V47.6959C43.9559 50.8533 41.4244 53.3999 38.3434 53.3999H28.5991M1.59966 26.4005L28.5991 54.3999V53.3999M28.5991 48.8918C28.601 48.2478 28.4725 47.6101 28.2214 47.0171C27.9709 46.4254 27.6034 45.8903 27.1411 45.4441C26.0086 44.3302 24.3998 43.734 22.7465 43.7573C21.2534 43.772 19.8131 44.3125 18.6789 45.2838L18.6728 45.289L18.6667 45.2944C17.9132 45.961 16.9564 47.1714 16.9564 48.9868V53.3999H7.3048C5.7922 53.3983 4.34202 52.7967 3.27245 51.7271C2.20301 50.6577 1.60143 49.2077 1.59966 47.6953V38.0432L27.5991 48.8903M28.5991 48.8918C28.5991 48.8924 28.5991 48.893 28.5991 48.8936L27.5991 48.8903M28.5991 48.8918V48.8903H27.5991M28.5991 48.8918V53.3999M27.5991 48.8903V53.3999H28.5991M17.9564 53.3999V54.3999H16.9564L17.9564 53.3999Z" stroke="#C8A390" stroke-width="2"/>
</svg>
