<svg width="36" height="50" viewBox="0 0 36 50" fill="none" xmlns="http://www.w3.org/2000/svg">
<path d="M29.748 28.6257C28.0076 31.0127 26.158 33.5494 25.1141 36.4902H10.8913C9.84216 33.5144 7.95619 30.9403 6.18474 28.5226L6.15443 28.4812L6.15375 28.4803C5.64325 27.7852 5.14152 27.102 4.66027 26.4109L4.65921 26.4094C2.83417 23.799 1.76465 20.6191 1.76465 17.1875C1.76465 8.25023 9.03117 1 18.0003 1C26.9691 1 34.236 8.24987 34.236 17.1973C34.236 20.628 33.167 23.7989 31.3405 26.4206L31.3404 26.4207C30.8591 27.1118 30.3574 27.795 29.8469 28.4901L29.8448 28.493C29.8126 28.5372 29.7803 28.5814 29.748 28.6257ZM24.8347 42.1875C24.8347 45.949 21.7792 49 18.0003 49C14.2215 49 11.1659 45.949 11.1659 42.1875V41.625H24.8347V42.1875ZM8.59905 19.75C10.0105 19.75 11.1659 18.6018 11.1659 17.1875C11.1659 13.426 14.2215 10.375 18.0003 10.375C19.4118 10.375 20.5672 9.2268 20.5672 7.8125C20.5672 6.3982 19.4118 5.25 18.0003 5.25C11.3888 5.25 6.03217 10.5877 6.03217 17.1875C6.03217 18.6018 7.18762 19.75 8.59905 19.75Z" stroke="#C8A390" stroke-width="2"/>
</svg>
